<!-- Generated by IcoMoon.io -->
<svg version="1.1" xmlns="http://www.w3.org/2000/svg" width="100" height="100" viewBox="0 0 1024 1024">
<title></title>
<g id="icomoon-ignore">
</g>
<path fill="#FF6565" d="M602.153 194.564c58.944 0.384 114.288 22.68 155.837 62.789 41.702 40.262 65.006 94.090 65.611 151.57 0.787 74.51-37.157 143.28-101.496 183.946-26.002 16.435-39.322 46.334-33.134 74.4 2.237 10.162 3.206 20.63 2.88 31.114-1.008 32.227-14.352 62.794-37.574 86.069-23.093 23.15-53.909 37.003-86.765 39.005-2.779 0.173-5.558 0.254-8.328 0.254-35.29 0-69.269-13.651-94.306-38.136-27.178-26.582-38.438-65.779-32.568-113.362 10.882-88.162 0.888-152.789-34.488-223.070-16.766-33.317-20.64-67.502-11.203-98.861 13.349-44.342 41.712-84.163 79.867-112.128 39.336-28.829 86.198-43.891 135.667-43.589zM601.917 231.431c-41.434-0.204-80.736 12.343-113.64 36.459-31.738 23.256-55.306 56.294-66.355 93.019-8.424 27.989 0.149 54.418 8.827 71.659 48.322 95.995 46.402 177.298 38.15 244.162-4.474 36.245 2.846 63.998 21.754 82.488 19.57 19.138 46.752 29.136 74.616 27.442 23.846-1.45 46.19-11.482 62.909-28.243 16.584-16.622 26.112-38.352 26.822-61.186 0.235-7.43-0.451-14.846-2.030-22.027-4.766-21.629-2.443-43.92 6.71-64.474 8.928-20.045 23.702-36.998 42.725-49.022 53.458-33.787 84.984-90.758 84.336-152.395-0.499-47.534-19.805-92.083-54.355-125.438-34.704-33.499-81.038-52.123-130.469-52.443zM308.532 450.347c7.080-7.31 18.754-7.493 26.059-0.413 35.65 34.541 55.282 80.578 55.282 129.629s-19.632 95.088-55.277 129.629c-3.581 3.47-8.208 5.198-12.826 5.198-4.814 0-9.624-1.877-13.238-5.606-7.085-7.31-6.902-18.979 0.408-26.064 28.421-27.538 44.069-64.171 44.069-103.157 0-38.981-15.648-75.614-44.069-103.152-7.31-7.085-7.493-18.754-0.408-26.064zM254.661 502.547c7.080-7.31 18.749-7.498 26.064-0.413 21.307 20.65 33.043 48.149 33.043 77.429 0 29.285-11.736 56.784-33.043 77.434-3.581 3.466-8.208 5.194-12.826 5.194-4.819 0-9.624-1.877-13.238-5.606-7.085-7.31-6.902-18.979 0.408-26.064 14.083-13.642 21.835-31.738 21.835-50.957 0-19.214-7.752-37.31-21.835-50.952-7.31-7.085-7.493-18.754-0.408-26.064zM199.999 540.668c7.224-7.176 18.893-7.138 26.069 0.082 20.083 20.213 20.083 53.098 0 73.31-3.6 3.624-8.338 5.438-13.075 5.438-4.699 0-9.398-1.781-12.994-5.357-7.219-7.176-7.258-18.845-0.082-26.064 5.846-5.885 5.846-15.461 0-21.346-7.176-7.219-7.138-18.893 0.082-26.064zM600.645 281.857c73.272 0 132.883 58.018 132.883 129.331 0 10.181-8.256 18.432-18.437 18.432-10.176 0-18.432-8.251-18.432-18.432 0-50.986-43.070-92.467-96.014-92.467-45.557 0-83.808 30.72-93.59 71.774 11.789 0.442 23.458 3.384 33.95 8.746 27.566 14.083 44.77 43.862 42.802 74.107-1.934 29.77-22.397 57.029-50.918 67.838-2.15 0.811-4.358 1.2-6.528 1.2-7.44 0-14.448-4.536-17.242-11.904-3.605-9.518 1.186-20.16 10.704-23.77 15.254-5.779 26.184-20.15 27.202-35.755 1.022-15.773-8.136-31.402-22.786-38.89-9.835-5.021-22.109-6.134-32.837-2.981-5.573 1.637-11.592 0.557-16.243-2.923s-7.392-8.952-7.392-14.76v0-0.216c0-71.314 59.611-129.331 132.878-129.331z"></path>
</svg>
