<!-- Generated by IcoMoon.io -->
<svg version="1.1" xmlns="http://www.w3.org/2000/svg" width="30" height="30" viewBox="0 0 1024 1024">
<title></title>
<g id="icomoon-ignore">
</g>
<path fill="#fff" d="M512 51.2c254.493 0 460.8 206.307 460.8 460.8s-206.307 460.8-460.8 460.8c-254.493 0-460.8-206.307-460.8-460.8s206.307-460.8 460.8-460.8zM530.995 266.25h-38.016c-49.64 0.060-58.808 0.406-82.292 1.475-26.163 1.198-44.022 5.34-59.649 11.418-16.164 6.277-29.876 14.674-43.536 28.339-13.671 13.66-22.067 27.372-28.365 43.531-6.093 15.632-10.24 33.495-11.418 59.649-1.075 24.030-1.422 33.075-1.473 85.827v31.028c0.049 52.747 0.389 61.767 1.478 85.797 1.203 26.163 5.345 44.022 11.418 59.649 6.282 16.164 14.679 29.876 28.345 43.536 13.655 13.671 27.367 22.088 43.52 28.365 15.637 6.078 33.501 10.22 59.659 11.418 24.576 1.118 33.47 1.445 89.478 1.481h23.698c56.014-0.036 64.889-0.363 89.466-1.481 26.163-1.198 44.043-5.34 59.679-11.418 16.159-6.277 29.85-14.695 43.505-28.365 13.671-13.66 22.067-27.372 28.365-43.531 6.042-15.632 10.189-33.495 11.418-59.649 1.178-26.215 1.485-34.571 1.485-101.316s-0.307-75.121-1.485-101.336c-1.229-26.163-5.376-44.022-11.418-59.649-6.298-16.164-14.695-29.876-28.365-43.536-13.671-13.671-27.341-22.067-43.52-28.339-15.667-6.078-33.536-10.22-59.7-11.418-23.484-1.069-32.628-1.414-82.277-1.475zM489.976 310.467v0.061c6.543-0.010 13.845 0 22.047 0l19.070 0.009c48.409 0.052 57.083 0.352 80.239 1.404 23.962 1.096 36.967 5.1 45.63 8.463 11.469 4.454 19.646 9.779 28.242 18.381 8.602 8.602 13.927 16.794 18.391 28.263 3.364 8.653 7.373 21.658 8.463 45.62 1.076 23.666 1.382 32.208 1.427 83.502l-0.003 34.837c-0.055 48.388-0.372 57.065-1.424 80.217-1.096 23.962-5.1 36.967-8.463 45.62-4.454 11.469-9.79 19.635-18.391 28.232-8.602 8.602-16.768 13.927-28.242 18.381-8.653 3.379-21.668 7.373-45.63 8.469-23.703 1.077-32.234 1.383-83.765 1.428h-31.089c-51.534-0.044-60.061-0.35-83.764-1.428-23.962-1.106-36.967-5.11-45.635-8.474-11.469-4.454-19.661-9.779-28.263-18.381s-13.927-16.773-18.391-28.247c-3.364-8.653-7.373-21.658-8.463-45.62-1.002-22.049-1.322-30.97-1.395-73.594v-51.448c0.073-42.615 0.393-51.506 1.395-73.555 1.096-23.962 5.1-36.967 8.463-45.63 4.454-11.469 9.79-19.661 18.391-28.263s16.794-13.927 28.263-18.391c8.663-3.379 21.673-7.373 45.635-8.474 22.672-1.024 31.458-1.331 77.262-1.382zM512.020 385.792c-69.696 0.001-126.206 56.511-126.206 126.21s56.51 126.184 126.209 126.184c69.699 0 126.189-56.484 126.189-126.184 0-68.659-54.821-124.52-123.082-126.172l-3.11-0.038zM512.023 430.082c45.241 0 81.921 36.675 81.921 81.921 0 45.241-36.68 81.921-81.921 81.921-45.246 0-81.921-36.68-81.921-81.921 0-45.246 36.675-81.921 81.921-81.921zM643.209 351.325v0.010c-16.282 0-29.492 13.194-29.492 29.481 0 16.282 13.21 29.492 29.492 29.492s29.492-13.21 29.492-29.492c0-16.282-13.21-29.492-29.492-29.492z"></path>
</svg>
