<!-- Generated by IcoMoon.io -->
<svg version="1.1" xmlns="http://www.w3.org/2000/svg" width="100" height="100" viewBox="0 0 1024 1024">
<title></title>
<g id="icomoon-ignore">
</g>
<path fill="#FF6565" d="M774.758 344.207v-112.558c0-5.284-2.58-10.322-6.758-13.394-4.301-3.072-9.83-4.055-14.868-2.458l-335.34 106.537c-6.881 2.212-11.551 8.602-11.551 15.852v328.212c-17.572-12.165-40.059-18.801-63.652-18.801-24.945 0-48.66 7.496-66.724 21.012-19.415 14.623-30.106 34.406-30.106 55.91s10.691 41.288 30.106 55.91c18.063 13.517 41.656 21.012 66.724 21.012s48.66-7.496 66.724-21.012c19.415-14.623 30.106-34.406 30.106-55.91v-261.489l302.162-96.092v192.43c-17.572-12.165-40.059-18.801-63.652-18.801-24.945 0-48.66 7.496-66.724 21.012-19.415 14.623-30.106 34.406-30.106 55.91s10.691 41.288 30.106 55.91c18.063 13.517 41.656 21.012 66.724 21.012s48.66-7.496 66.724-21.012c19.415-14.623 30.106-34.406 30.106-55.91v-273.162c0-0.123 0-0.123 0-0.123zM342.589 768.265c-34.529 0-63.652-20.029-63.652-43.745s29.123-43.745 63.652-43.745c34.529 0 63.652 20.029 63.652 43.745 0 23.839-29.123 43.745-63.652 43.745zM439.419 428.134v-77.906l302.162-95.969v77.906l-302.162 95.969zM678.052 661.237c-34.529 0-63.652-20.029-63.652-43.745s29.123-43.745 63.652-43.745c34.529 0 63.652 20.029 63.652 43.745-0.123 23.716-29.245 43.745-63.652 43.745z"></path>
</svg>
