<svg version="1.1" xmlns="http://www.w3.org/2000/svg" width="100" height="100" viewBox="0 0 1024 1024">
<title></title>
<g id="icomoon-ignore">
</g>
<path fill="#FF6565" d="M471.134 174.080c11.876 0 21.504 9.628 21.504 21.504v0 626.249c0 11.876-9.628 21.504-21.504 21.504s-21.504-9.628-21.504-21.504v0-626.249c0-11.876 9.628-21.504 21.504-21.504zM554.917 227.407c11.876 0 21.504 9.625 21.504 21.504v0 519.598c0 11.876-9.628 21.504-21.504 21.504s-21.504-9.628-21.504-21.504v0-519.598c0-11.876 9.628-21.504 21.504-21.504zM387.355 323.124c11.876 0 21.504 9.628 21.504 21.504v0 328.163c0 11.876-9.628 21.504-21.504 21.504s-21.504-9.628-21.504-21.504v0-328.163c0-11.876 9.628-21.504 21.504-21.504zM638.696 334.061c11.876 0 21.504 9.628 21.504 21.504v0 306.288c0 11.876-9.628 21.504-21.504 21.504s-21.504-9.628-21.504-21.504v0-306.288c0-11.876 9.628-21.504 21.504-21.504zM303.569 386.023c11.879 0 21.504 9.625 21.504 21.504v0 202.368c0 11.876-9.628 21.504-21.504 21.504s-21.504-9.628-21.504-21.504v0-202.368c0-11.876 9.628-21.504 21.504-21.504zM722.482 398.324c11.876 0 21.504 9.628 21.504 21.504v0 177.758c0 11.876-9.628 21.504-21.504 21.504s-21.504-9.628-21.504-21.504v0-177.758c0-11.876 9.628-21.504 21.504-21.504zM219.789 421.573c11.876 0 21.504 9.628 21.504 21.504v0 131.267c0 11.876-9.628 21.504-21.504 21.504s-21.504-9.628-21.504-21.504v0-131.267c0-11.876 9.628-21.504 21.504-21.504zM806.265 425.677c11.876 0 21.504 9.628 21.504 21.504v0 123.061c0 11.876-9.628 21.504-21.504 21.504s-21.504-9.628-21.504-21.504v0-123.061c0-11.876 9.628-21.504 21.504-21.504zM52.224 451.657c11.876 0 21.504 9.625 21.504 21.504v0 71.101c0 11.876-9.628 21.504-21.504 21.504s-21.504-9.628-21.504-21.504v0-71.101c0-11.876 9.628-21.504 21.504-21.504zM136.007 451.657c11.879 0 21.504 9.625 21.504 21.504v0 71.101c0 11.876-9.628 21.504-21.504 21.504s-21.504-9.628-21.504-21.504v0-71.101c0-11.876 9.628-21.504 21.504-21.504zM890.044 451.657c11.876 0 21.504 9.625 21.504 21.504v0 71.101c0 11.876-9.628 21.504-21.504 21.504s-21.504-9.628-21.504-21.504v0-71.101c0-11.876 9.628-21.504 21.504-21.504zM973.824 451.657c11.876 0 21.504 9.625 21.504 21.504v0 71.101c0 11.876-9.628 21.504-21.504 21.504s-21.504-9.628-21.504-21.504v0-71.101c0-11.876 9.628-21.504 21.504-21.504z"></path>
</svg>
