<!-- Generated by IcoMoon.io -->
<svg version="1.1" xmlns="http://www.w3.org/2000/svg" width="30" height="30" viewBox="0 0 1024 1024">
<title></title>
<g id="icomoon-ignore">
</g>
<path fill="#fff" d="M512 51.2c254.493 0 460.8 206.307 460.8 460.8s-206.307 460.8-460.8 460.8c-254.493 0-460.8-206.307-460.8-460.8s206.307-460.8 460.8-460.8zM561.052 332.028c-40.29 14.643-65.753 52.39-62.852 93.716l0.967 15.945-16.116-1.952c-58.662-7.484-109.911-32.866-153.424-75.493l-21.273-21.151-5.479 15.619c-11.604 34.818-4.19 71.589 19.984 96.319 12.893 13.667 9.992 15.619-12.248 7.484-7.736-2.603-14.504-4.556-15.149-3.579-2.256 2.278 5.479 31.889 11.604 43.604 8.38 16.27 25.463 32.215 44.158 41.652l15.794 7.484-18.695 0.325c-18.050 0-18.695 0.325-16.761 7.159 6.446 21.151 31.91 43.604 60.274 53.366l19.984 6.833-17.405 10.413c-25.786 14.969-56.084 23.429-86.382 24.080-14.504 0.325-26.43 1.627-26.43 2.603 0 3.254 39.323 21.477 62.208 28.635 68.654 21.151 150.201 12.040 211.442-24.080 43.513-25.707 87.026-76.795 107.333-126.256 10.959-26.358 21.918-74.517 21.918-97.621 0-14.969 0.967-16.921 19.017-34.818 10.637-10.413 20.628-21.802 22.562-25.056 3.223-6.183 2.901-6.183-13.537-0.651-27.397 9.762-31.265 8.46-17.728-6.183 9.992-10.413 21.918-29.286 21.918-34.818 0-0.976-4.835 0.651-10.314 3.579-5.802 3.254-18.695 8.135-28.364 11.064l-17.405 5.532-15.794-10.738c-8.703-5.857-20.951-12.365-27.397-14.318-16.438-4.556-41.579-3.905-56.406 1.302z"></path>
</svg>
