<!-- Generated by IcoMoon.io -->
<svg version="1.1" xmlns="http://www.w3.org/2000/svg" width="100" height="100" viewBox="0 0 1024 1024">
<title></title>
<g id="icomoon-ignore">
</g>
<path fill="#FF6565" d="M721.798 122.88c37.896 0 71.712 25.368 82.236 61.686v0l26.34 90.93c1.134 3.912 0.666 8.112-1.302 11.682-1.968 3.564-5.268 6.21-9.18 7.344v0l-503.346 145.812h524.040c8.484 0 15.36 6.876 15.36 15.36v0 368.136c0 47.136-38.346 85.482-85.482 85.482v0h-184.572c-8.478 0-15.36-6.876-15.36-15.36s6.882-15.36 15.36-15.36v0h184.572c30.198 0 54.762-24.564 54.762-54.762v0-209.028h-601.542v209.028c0 30.198 24.564 54.762 54.762 54.762v0h184.566c8.484 0 15.36 6.876 15.36 15.36s-6.876 15.36-15.36 15.36v0h-184.572c-47.13 0-85.476-38.346-85.476-85.482v0-365.958l-25.734-88.836c-6.33-21.852-3.738-44.934 7.302-64.98 11.046-20.046 29.16-34.578 51.018-40.908v0l472.59-136.902c7.716-2.232 15.672-3.366 23.658-3.366zM524.452 878.592c8.466 0 15.36 6.9 15.36 15.36s-6.894 15.36-15.36 15.36c-8.46 0-15.36-6.9-15.36-15.36s6.9-15.36 15.36-15.36zM472.678 653.922c4.752-2.742 10.608-2.742 15.36 0v0l134.946 77.91c4.752 2.742 7.68 7.812 7.68 13.302s-2.928 10.56-7.68 13.302v0l-134.946 77.904c-2.376 1.374-5.028 2.064-7.68 2.064s-5.304-0.69-7.68-2.064c-4.752-2.742-7.68-7.812-7.68-13.296v0-155.82c0-5.49 2.928-10.56 7.68-13.302zM495.718 693.828v102.612l88.866-51.306-88.866-51.306zM719.884 471.054h-84.882l-65.262 113.028h84.888l65.256-113.028zM599.524 471.054h-84.882l-65.262 113.028h84.888l65.256-113.028zM479.17 471.054h-84.888l-65.256 113.028h84.882l65.262-113.028zM358.81 471.054h-135.126v113.028h69.87l65.256-113.028zM825.226 471.054h-69.87l-65.256 113.028h135.126v-113.028zM243.124 290.040l-9.024 2.616c-13.98 4.050-25.578 13.362-32.658 26.22-7.080 12.864-8.754 27.642-4.704 41.616v0l22.068 76.17 135.618-39.288-109.284-104.964c-0.762-0.732-1.434-1.53-2.016-2.37v0zM358.732 256.554l-81.882 23.718 109.284 104.964c0.762 0.732 1.44 1.53 2.016 2.37v0l81.882-23.718-109.284-104.964c-0.768-0.738-1.44-1.53-2.016-2.37v0zM474.334 223.068l-81.882 23.718 109.284 104.964c0.768 0.732 1.44 1.53 2.016 2.37v0l81.882-23.724-109.284-104.958c-0.762-0.738-1.434-1.536-2.016-2.37v0zM589.942 189.576l-81.882 23.718 109.284 104.964c0.768 0.732 1.44 1.53 2.016 2.37v0l81.882-23.718-109.284-104.964c-0.768-0.738-1.44-1.53-2.016-2.37v0zM721.798 153.6c-5.094 0-10.176 0.726-15.108 2.154v0l-83.022 24.054 109.278 104.958c0.768 0.738 1.44 1.53 2.022 2.37v0l61.626-17.85-22.068-76.17c-6.744-23.268-28.422-39.516-52.728-39.516z"></path>
</svg>
